<svg width="93" height="31" viewBox="0 0 93 31" fill="none" xmlns="http://www.w3.org/2000/svg">
<g clip-path="url(#clip0_1521_1464)">
<path d="M2.86241 3.11886C6.86991 1.029 11.0303 0 15.3284 0C15.3588 0 15.3892 0 15.42 0C15.4508 0 15.4812 0 15.5117 0C19.8097 0 23.9701 1.029 27.9776 3.11886L28.2226 3.38364C29.8591 7.31321 30.792 11.3207 30.8381 15.3906C30.8381 15.4686 30.8381 15.531 30.8381 15.6089V15.8896C30.8229 19.8037 29.9968 23.7957 28.2226 27.8501L27.9472 28.1149C23.7716 30.002 19.5956 30.9531 15.42 31C11.2444 30.9531 7.06841 30.002 2.89281 28.1149L2.61745 27.8501C0.843238 23.7957 0.0171571 19.8037 0.00195312 15.8896V15.6089C0.00195312 15.531 0.00195312 15.4686 0.00195312 15.3906C0.0479873 11.3207 0.980918 7.31321 2.61745 3.38364L2.86241 3.11886ZM15.42 1.06043C15.3892 1.06043 15.3588 1.06043 15.3284 1.06043C11.2444 1.06043 7.31336 2.027 3.50477 3.9765C1.95988 7.71879 1.08819 11.5235 1.04216 15.4066C0.980918 19.2578 1.76096 23.2029 3.48957 27.2263C7.46624 28.9881 11.4429 29.8926 15.42 29.9396C19.3967 29.8926 23.3738 28.9881 27.3505 27.2263C29.0791 23.2029 29.8591 19.2578 29.7979 15.4066C29.7518 11.5235 28.8801 7.71879 27.3353 3.9765C23.5267 2.027 19.5956 1.06043 15.5117 1.06043C15.4812 1.06043 15.4508 1.06043 15.42 1.06043Z" fill="white"/>
<path fill-rule="evenodd" clip-rule="evenodd" d="M15.6953 24.1543C15.4811 21.1758 15.6188 18.0729 14.7467 15.2347C13.9362 12.5839 10.8617 11.0714 10.8004 8.15532C10.7392 5.8786 12.4374 3.24324 15.6188 3.24324C18.6013 3.22775 20.452 5.44203 20.6661 7.90603C20.9263 10.7597 17.5307 12.6773 16.6434 15.3906C15.7257 18.1663 15.9858 21.2382 15.6953 24.1543Z" fill="white"/>
<path fill-rule="evenodd" clip-rule="evenodd" d="M16.873 23.437C16.7505 20.8486 16.7505 18.3691 17.4541 16.1703C18.2342 13.6753 19.8555 11.5703 22.3333 10.8841C24.0311 10.4165 26.5246 12.4435 26.1267 14.5174C25.7901 16.1858 24.1536 18.1508 21.5229 18.3691C20.299 18.4784 19.7791 19.476 19.0142 20.0533C22.4406 19.7102 24.6583 18.3376 26.2032 16.9031C26.4325 18.1193 26.5854 20.1623 25.6524 20.8641C23.817 22.1893 22.1192 21.1133 19.9624 21.7372C18.7541 22.0958 18.0049 22.8756 16.873 23.437Z" fill="white"/>
<path fill-rule="evenodd" clip-rule="evenodd" d="M14.5319 23.437C14.6696 20.8486 14.6544 18.3691 13.966 16.1703C13.1859 13.6753 11.5646 11.5703 9.08676 10.8841C7.38899 10.4165 4.88034 12.4435 5.29338 14.5174C5.62998 16.1858 7.26651 18.1508 9.89764 18.3691C11.1059 18.4784 11.641 19.476 12.4059 20.0533C8.96429 19.7102 6.76183 18.3376 5.21694 16.9031C4.98761 18.1193 4.83473 20.1623 5.76766 20.8641C7.60311 22.1893 9.30088 21.1133 11.4577 21.7372C12.666 22.0958 13.4 22.8756 14.5319 23.437Z" fill="white"/>
<path fill-rule="evenodd" clip-rule="evenodd" d="M22.6849 27.2886V26.8675L22.9906 26.7896L22.6849 26.3216V25.5419L24.0617 27.4914L23.5722 27.6158L23.2356 27.1323L22.6849 27.2886ZM22.6849 25.5419V26.3216L22.4707 26.0099L22.3791 26.9455L22.6849 26.8675V27.2886L22.3331 27.3665L22.2718 27.9435L21.7823 28.0683L22.1037 25.5264L22.5932 25.4015L22.6849 25.5419ZM18.1266 28.6452V28.2397H18.2339C18.402 28.2242 18.5093 28.2087 18.5549 28.1927C18.6161 28.1772 18.6773 28.1303 18.7082 28.0838C18.7538 28.0214 18.7694 27.959 18.7694 27.881C18.7538 27.8031 18.7386 27.7407 18.6926 27.6937C18.6621 27.6472 18.6009 27.6158 18.5397 27.6003C18.4784 27.5848 18.3408 27.5848 18.1266 27.6003V27.1947C18.2491 27.1947 18.3255 27.1792 18.3564 27.1792C18.4328 27.1637 18.4941 27.1168 18.5397 27.0703C18.5857 27.0234 18.6009 26.961 18.5857 26.883C18.5857 26.8051 18.5549 26.7427 18.5093 26.7117C18.4784 26.6647 18.4172 26.6337 18.3255 26.6337C18.2951 26.6337 18.2339 26.6337 18.1266 26.6492V26.2437C18.2951 26.2282 18.4172 26.2282 18.4941 26.2437C18.5857 26.2437 18.6773 26.2751 18.7538 26.3216C18.8302 26.353 18.8915 26.415 18.9527 26.4934C18.9987 26.5713 19.0292 26.6647 19.0444 26.7737C19.06 26.883 19.0292 26.9924 18.9831 27.0858C18.9375 27.1792 18.8611 27.2572 18.7538 27.3196C18.9067 27.351 19.0292 27.413 19.1056 27.5069C19.1977 27.6003 19.2433 27.7097 19.2585 27.85C19.2585 27.959 19.2433 28.0683 19.2129 28.1772C19.1668 28.2866 19.1056 28.3645 19.0292 28.4425C18.9375 28.5049 18.8459 28.5514 18.7234 28.5828C18.6469 28.5983 18.448 28.6138 18.1575 28.6452H18.1266ZM21.0175 27.3351L21.4918 27.3975C21.4614 27.6627 21.3849 27.881 21.2472 28.0369C21.1096 28.1772 20.9106 28.2866 20.6657 28.3331C20.3599 28.38 20.0846 28.3176 19.8552 28.1462C19.6103 27.959 19.4726 27.6937 19.3962 27.3196C19.3353 26.93 19.381 26.6023 19.5495 26.353C19.7023 26.1033 19.9469 25.9475 20.2683 25.885C20.5588 25.8381 20.7882 25.885 21.0023 26.0254C21.1248 26.1033 21.2316 26.2282 21.3081 26.415L20.8646 26.6023C20.819 26.4934 20.7421 26.3995 20.6505 26.353C20.5436 26.2906 20.4364 26.2751 20.3139 26.2906C20.1458 26.3216 20.0233 26.415 19.9317 26.5558C19.84 26.7117 19.8244 26.9145 19.8704 27.1947C19.9317 27.4914 20.0233 27.6937 20.1458 27.8031C20.2683 27.9125 20.4212 27.959 20.5892 27.928C20.7117 27.8965 20.8034 27.8341 20.8798 27.7407C20.9567 27.6472 21.0023 27.5069 21.0175 27.3351ZM18.1266 26.2437V26.6492C18.0658 26.6492 18.0046 26.6647 17.9281 26.6647L17.6528 26.6962L17.6984 27.2417L18.0198 27.2107C18.0502 27.2107 18.0962 27.2107 18.1266 27.1947V27.6003C18.1266 27.6003 18.1266 27.6003 18.1114 27.6003L17.7444 27.6317L17.7905 28.2707L18.1266 28.2397V28.6452L17.3618 28.7232L17.1477 26.3371L18.081 26.2592C18.0962 26.2437 18.1114 26.2437 18.1266 26.2437ZM15.1745 27.8186V27.413C15.2818 27.413 15.343 27.3975 15.3887 27.382C15.4499 27.3665 15.4959 27.3196 15.542 27.2731C15.5724 27.2107 15.5876 27.1482 15.5876 27.0858C15.6032 26.9924 15.5724 26.93 15.5263 26.8675C15.4807 26.8051 15.4195 26.7737 15.343 26.7582C15.297 26.7582 15.251 26.7427 15.1745 26.7427V26.3371C15.4043 26.3371 15.542 26.353 15.6184 26.384C15.7561 26.415 15.8629 26.4934 15.9546 26.6178C16.0466 26.7427 16.0923 26.8985 16.0771 27.0858C16.0771 27.2262 16.0466 27.351 16.0006 27.46C15.9394 27.5538 15.8781 27.6317 15.8017 27.6937C15.71 27.7407 15.6336 27.7717 15.542 27.8031C15.4499 27.8186 15.3278 27.8186 15.1745 27.8186ZM15.1745 26.3371V26.7427C15.1289 26.7427 15.0677 26.7427 14.9912 26.7427L14.7619 26.7272V27.413H15.0064C15.0677 27.413 15.1289 27.413 15.1745 27.413V27.8186C15.1441 27.8186 15.0981 27.8186 15.0525 27.8186H14.7463L14.7311 28.7232L14.2568 28.7072L14.3028 26.3216L15.0525 26.3371C15.0981 26.3371 15.1441 26.3371 15.1745 26.3371ZM10.7544 27.5848V26.852C10.8921 26.883 10.9837 26.883 11.0298 26.883C11.091 26.8675 11.1366 26.852 11.1827 26.8051C11.2131 26.7582 11.2439 26.7117 11.2591 26.6337C11.2743 26.5558 11.2591 26.4934 11.2283 26.431C11.1979 26.3685 11.1366 26.3371 11.0602 26.3061C11.0298 26.2906 10.9225 26.2751 10.7544 26.2437V25.8381L10.9533 25.8695C11.1979 25.9165 11.3659 25.963 11.4732 26.0254C11.5801 26.0878 11.6569 26.1812 11.7025 26.3061C11.7486 26.415 11.7638 26.5558 11.7334 26.6962C11.7025 26.8675 11.6261 27.0079 11.5036 27.1013C11.3968 27.1947 11.2283 27.2417 11.0141 27.2417C11.1062 27.3196 11.1827 27.3975 11.2283 27.4755C11.2895 27.5693 11.3507 27.7097 11.4272 27.9125L11.6261 28.427L11.0754 28.3176L10.8309 27.7407C10.8 27.6937 10.7848 27.6317 10.7544 27.5848ZM12.1004 26.1033L12.559 26.1502L12.4522 27.4445C12.437 27.6472 12.437 27.7876 12.437 27.8341C12.4522 27.9435 12.4978 28.0214 12.559 28.0838C12.6355 28.1617 12.7275 28.1927 12.8652 28.2087C13.0029 28.2242 13.1098 28.1927 13.171 28.1462C13.2474 28.0993 13.2935 28.0369 13.3239 27.959C13.3391 27.881 13.3547 27.7407 13.3699 27.5538L13.4768 26.2282L13.951 26.2751L13.8442 27.5224C13.8286 27.8186 13.7982 28.0214 13.7521 28.1303C13.7217 28.2397 13.6605 28.3486 13.5992 28.411C13.5228 28.4894 13.4159 28.5514 13.2935 28.5828C13.1862 28.6297 13.0333 28.6297 12.8496 28.6138C12.6203 28.5983 12.4522 28.5514 12.3449 28.4894C12.2381 28.427 12.146 28.3486 12.0852 28.2707C12.0239 28.1772 11.9931 28.0838 11.9779 27.9904C11.9627 27.85 11.9627 27.6472 11.9779 27.382L12.1004 26.1033ZM8.38344 26.8051L8.47509 26.415L9.46968 26.6802L9.22472 27.6003C9.10225 27.6782 8.94936 27.7252 8.73524 27.7407C8.53632 27.7562 8.35303 27.7407 8.16932 27.6937C7.92479 27.6317 7.72587 27.5224 7.58819 27.382C7.43531 27.2262 7.34324 27.0389 7.29762 26.8361C7.26679 26.6178 7.26679 26.3995 7.32803 26.1812C7.38927 25.9475 7.49612 25.7447 7.64943 25.5733C7.78711 25.417 7.9704 25.3236 8.18452 25.2771C8.35303 25.2302 8.55153 25.2457 8.76607 25.3081C9.04101 25.386 9.25513 25.4954 9.37761 25.6667C9.50008 25.8226 9.56132 26.0254 9.54612 26.2437L9.07184 26.2127C9.07184 26.0878 9.04101 25.9785 8.96457 25.885C8.88813 25.8071 8.79648 25.7292 8.6588 25.6982C8.45988 25.6512 8.29179 25.6667 8.13891 25.7602C7.9856 25.854 7.87875 26.0409 7.80231 26.2906C7.72587 26.5713 7.74107 26.7896 7.81752 26.961C7.90916 27.1323 8.04684 27.2417 8.23056 27.2886C8.33741 27.3196 8.42947 27.3196 8.53632 27.3196C8.6436 27.3041 8.73524 27.2731 8.82689 27.2417L8.90333 26.9455L8.38344 26.8051ZM10.7544 25.8381L9.95874 25.6982L9.56132 28.0524L10.02 28.1303L10.1885 27.1482L10.2953 27.1637C10.4026 27.1792 10.479 27.2107 10.5247 27.2262C10.5707 27.2572 10.6011 27.3041 10.6471 27.351C10.6623 27.3975 10.7084 27.4755 10.7544 27.5848V26.852C10.7084 26.852 10.6623 26.8361 10.6011 26.8361L10.2649 26.7737L10.3566 26.1812L10.7236 26.2437C10.7388 26.2437 10.7544 26.2437 10.7544 26.2437V25.8381Z" fill="white"/>
<path fill-rule="evenodd" clip-rule="evenodd" d="M83.1965 22.7747V18.3771H85.0932V10.6429L83.1965 14.51V4.85764H90.6456L92.5423 27.0939H85.0932V22.7747H83.1965ZM83.1965 4.85764V14.51L81.2998 18.3771H83.1965V22.7747H79.6176L78.1492 26.8601H73.5297V21.7767L78.6843 10.4401H77.6289L80.5658 4.85764H83.1965ZM73.5297 12.2647L75.8395 6.68186L73.5297 5.37214V12.2647ZM55.1596 10.1284C55.2668 9.489 55.2668 8.86514 55.1596 8.27272V10.1284ZM73.5297 5.37214V12.2647L73.224 13.013C68.6657 9.69179 61.9359 12.7168 61.5532 16.2253C61.171 19.8896 63.909 22.8526 70.899 20.6384L68.4977 27.1874C59.2744 28.2323 55.6951 24.5055 55.1596 20.1549V17.6913C55.2973 16.5529 55.5882 15.4456 55.9857 14.4166C60.5287 2.90857 67.9009 5.497 70.7001 5.27871L71.1131 4L73.5297 5.37214ZM73.5297 21.7767L71.22 26.8601H73.5297V21.7767ZM46.8696 26.7198C51.8101 25.7218 56.6589 19.6714 51.7949 14.8531C53.6916 13.8237 54.869 11.9685 55.1596 10.1284V8.27272C54.8234 6.35464 53.3702 4.79521 50.6322 4.74828L46.8696 4.67036V8.94307H48.4297C50.0971 8.94307 49.883 13.3406 47.8026 13.3406H46.8696V16.7088C49.1181 17.1454 48.3225 20.3262 46.8696 21.3087V26.7198ZM55.1596 17.6913V20.1549C55.0679 19.3441 55.0679 18.5175 55.1596 17.6913ZM40.3535 4.53L37.3097 10.5494L38.6709 10.4401L35 26.8601H45.508C45.9671 26.8601 46.4106 26.8132 46.8696 26.7198V21.3087C46.6095 21.496 46.3189 21.6049 46.0283 21.6049H42.2502L43.5045 16.6619H46.3341C46.533 16.6619 46.7167 16.6774 46.8696 16.7088V13.3406H44.2385L45.2939 8.94307H46.8696V4.67036L40.3535 4.53Z" fill="white"/>
</g>
<defs>
<clipPath id="clip0_1521_1464">
<rect width="93" height="31" fill="white"/>
</clipPath>
</defs>
</svg>
