<svg width="24" height="24" viewBox="0 0 24 24" fill="none" xmlns="http://www.w3.org/2000/svg">
<path fill-rule="evenodd" clip-rule="evenodd" d="M20.8064 7.62358L20.184 6.54349C19.6574 5.62957 18.4905 5.31429 17.5753 5.83869V5.83869C17.1397 6.09531 16.6198 6.16812 16.1305 6.04106C15.6411 5.91399 15.2224 5.59749 14.9666 5.16134C14.8021 4.88412 14.7137 4.56836 14.7103 4.24601V4.24601C14.7251 3.72919 14.5302 3.22837 14.1698 2.85764C13.8094 2.48691 13.3143 2.27783 12.7973 2.27805H11.5433C11.0367 2.27804 10.5511 2.47988 10.1938 2.83891C9.83644 3.19795 9.63693 3.68456 9.63937 4.19109V4.19109C9.62435 5.23689 8.77224 6.07678 7.72632 6.07667C7.40397 6.07332 7.08821 5.98491 6.81099 5.82038V5.82038C5.89582 5.29598 4.72887 5.61126 4.20229 6.52519L3.5341 7.62358C3.00817 8.53636 3.31916 9.70258 4.22975 10.2323V10.2323C4.82166 10.574 5.18629 11.2056 5.18629 11.889C5.18629 12.5725 4.82166 13.204 4.22975 13.5458V13.5458C3.32031 14.0719 3.00898 15.2353 3.5341 16.1453V16.1453L4.16568 17.2346C4.4124 17.6798 4.82636 18.0083 5.31595 18.1474C5.80554 18.2866 6.3304 18.2249 6.77438 17.976V17.976C7.21084 17.7213 7.73094 17.6515 8.2191 17.7822C8.70725 17.9128 9.12299 18.233 9.37392 18.6716C9.53845 18.9489 9.62686 19.2646 9.63021 19.587V19.587C9.63021 20.6435 10.4867 21.5 11.5433 21.5H12.7973C13.8502 21.5 14.7053 20.6491 14.7103 19.5961V19.5961C14.7079 19.088 14.9086 18.6 15.2679 18.2407C15.6272 17.8814 16.1152 17.6806 16.6233 17.6831C16.9449 17.6917 17.2594 17.7797 17.5387 17.9394V17.9394C18.4515 18.4653 19.6177 18.1543 20.1474 17.2437V17.2437L20.8064 16.1453C21.0615 15.7075 21.1315 15.186 21.001 14.6963C20.8704 14.2067 20.55 13.7893 20.1108 13.5366V13.5366C19.6715 13.2839 19.3511 12.8665 19.2206 12.3769C19.09 11.8873 19.16 11.3658 19.4151 10.9279C19.581 10.6383 19.8211 10.3982 20.1108 10.2323V10.2323C21.0159 9.70286 21.3262 8.54346 20.8064 7.63274V7.63274V7.62358Z" stroke="white" stroke-opacity="0.2" stroke-width="1.5" stroke-linecap="round" stroke-linejoin="round"/>
<circle cx="12.1752" cy="11.889" r="2.63616" stroke="white" stroke-opacity="0.2" stroke-width="1.5" stroke-linecap="round" stroke-linejoin="round"/>
</svg>
