<svg width="24" height="24" viewBox="0 0 24 24" fill="none" xmlns="http://www.w3.org/2000/svg">
<path opacity="0.4" d="M16.6756 2H7.33333C3.92889 2 2 3.92889 2 7.33333V16.6667C2 20.0711 3.92889 22 7.33333 22H16.6756C20.08 22 22 20.0711 22 16.6667V7.33333C22 3.92889 20.08 2 16.6756 2Z" fill="white"/>
<path d="M7.36964 9.36899C6.9163 9.36899 6.54297 9.74232 6.54297 10.2045V17.0757C6.54297 17.529 6.9163 17.9023 7.36964 17.9023C7.83186 17.9023 8.20519 17.529 8.20519 17.0757V10.2045C8.20519 9.74232 7.83186 9.36899 7.36964 9.36899Z" fill="white"/>
<path d="M12.0357 6.08899C11.5823 6.08899 11.209 6.46232 11.209 6.92454V17.0757C11.209 17.529 11.5823 17.9023 12.0357 17.9023C12.4979 17.9023 12.8712 17.529 12.8712 17.0757V6.92454C12.8712 6.46232 12.4979 6.08899 12.0357 6.08899Z" fill="white"/>
<path d="M16.6402 12.9956C16.178 12.9956 15.8047 13.369 15.8047 13.8312V17.0756C15.8047 17.529 16.178 17.9023 16.6314 17.9023C17.0936 17.9023 17.4669 17.529 17.4669 17.0756V13.8312C17.4669 13.369 17.0936 12.9956 16.6402 12.9956Z" fill="white"/>
</svg>
