<svg width="111" height="31" viewBox="0 0 111 31" fill="none" xmlns="http://www.w3.org/2000/svg">
<g clip-path="url(#clip0_1521_1458)">
<path d="M0.130396 21.3027C0.130396 19.7629 0.10234 18.4738 0.015625 17.3205H3.05194L3.19604 19.2994H3.28021C3.96756 18.2549 5.22748 17.0172 7.57645 17.0172C9.41023 17.0172 10.841 18.0078 11.4429 19.4901H11.5016C11.9887 18.749 12.56 18.1986 13.2181 17.8158C13.9921 17.2924 14.8822 17.0172 16.0261 17.0172C18.347 17.0172 20.6934 18.5276 20.6934 22.8156V30.6967H17.2567V23.3072C17.2567 21.0838 16.4546 19.7629 14.7649 19.7629C13.5624 19.7629 12.6735 20.5896 12.3024 21.5509C12.1992 21.9178 12.1414 22.2951 12.1303 22.6749V30.6979H8.69355V22.9489C8.69355 21.085 7.92076 19.7641 6.28719 19.7641C4.97243 19.7641 4.08488 20.7548 3.76607 21.6867C3.62452 22.0169 3.56586 22.4034 3.56586 22.785V30.6979H0.130396V21.3027ZM34.0846 27.4851C34.0846 28.6922 34.142 29.8724 34.2835 30.6979H31.1044L30.8761 29.2156H30.7894C29.9299 30.2601 28.4685 30.9988 26.6679 30.9988C23.8598 30.9988 22.2849 29.0505 22.2849 27.0166C22.2849 23.635 25.4041 21.935 30.5624 21.9619V21.743C30.5624 20.8624 30.1888 19.407 27.725 19.407C26.3491 19.407 24.9183 19.8204 23.9733 20.3952L23.286 18.1974C24.3176 17.592 26.1221 17.016 28.3257 17.016C32.7954 17.016 34.0859 19.7384 34.0859 22.6468L34.0846 27.4851ZM30.6466 24.1621C28.1535 24.1058 25.7778 24.6281 25.7778 26.6607C25.7778 27.9792 26.6679 28.5846 27.7837 28.5846C29.1852 28.5846 30.2181 27.7028 30.5331 26.7427C30.6102 26.5026 30.6489 26.2527 30.6479 26.0015V24.1621H30.6466ZM36.5177 21.3027C36.5177 19.7629 36.4884 18.4738 36.4055 17.3205H39.4954L39.6663 19.3287H39.753C40.3536 18.283 41.8724 17.0172 44.1921 17.0172C46.6277 17.0172 49.1463 18.5276 49.1463 22.7605V30.6967H45.6241V23.1445C45.6241 21.222 44.8781 19.7617 42.9602 19.7617C41.5587 19.7617 40.5819 20.7242 40.2108 21.7417C40.096 22.0426 40.068 22.456 40.068 22.8376V30.6955H36.5165L36.5177 21.3027ZM64.421 11.9465V26.9347C64.421 28.3082 64.4797 29.7941 64.5358 30.6979H61.3872L61.2431 28.5846H61.1845C60.3556 30.0669 58.6633 31 56.6319 31C53.3087 31 50.6753 28.2812 50.6753 24.1633C50.6447 19.6846 53.565 17.0184 56.9188 17.0184C58.8368 17.0184 60.2115 17.7877 60.8414 18.7808H60.9014V11.9478H64.4223V11.9465H64.421ZM60.9001 22.8963C60.9001 22.6235 60.872 22.2933 60.8134 22.0169C60.4984 20.7009 59.3838 19.6284 57.7783 19.6284C55.5161 19.6284 54.2536 21.5522 54.2536 24.0508C54.2536 26.4932 55.5148 28.28 57.7503 28.28C59.1798 28.28 60.441 27.3444 60.784 25.889C60.8708 25.5881 60.9014 25.2567 60.9014 24.9008V22.8963H60.9001ZM66.9128 30.6979V17.3205H70.4669V30.6979H66.9128ZM72.9561 21.6341C72.9561 19.8216 72.9293 18.5289 72.8439 17.3217H75.9082L76.0205 19.8742H76.1365C76.8239 17.9797 78.4549 17.3217 79.9482 17.3217C80.2912 17.3217 80.4901 17.2655 80.7758 17.3217V20.29C80.4378 20.2183 80.0928 20.1814 79.7467 20.1799C78.0532 20.1799 76.908 21.2244 76.5943 22.7324C76.5249 23.0775 76.487 23.4278 76.4808 23.7793V30.6992H72.9561V21.6341ZM82.4106 30.6979V17.3205H85.9596V30.6979H82.4106Z" fill="white"/>
<path d="M108.067 3.17249C106.308 1.24867 104.439 2.11947 102.953 2.8276C102.328 3.12357 97.8179 5.57573 97.8179 5.57573C95.3465 6.55293 93.4222 5.48645 92.6673 4.58875C92.5951 4.50362 92.5298 4.41326 92.4722 4.31846L92.2962 4.02616C91.9987 3.53279 91.6682 3.05848 91.3066 2.60623C91.0872 2.33211 90.8495 2.07187 90.595 1.82716C88.9041 0.189534 86.2019 -0.95644 81.685 1.12515C79.5464 2.31393 72.5799 6.13099 72.5799 6.13099C69.9618 7.16444 67.9597 5.90595 67.3094 4.98257C67.2801 4.94799 67.2544 4.91071 67.2329 4.87127L67.1474 4.73185L66.7062 4.03962C66.5071 3.73638 66.2935 3.44214 66.066 3.15782C65.8444 2.88544 65.6064 2.62571 65.3532 2.37997C63.6737 0.752125 60.9855 -0.391402 56.5082 1.65105C53.8009 3.13335 47.5038 6.58595 47.5038 6.58595L47.5013 6.5884L42.8926 9.11394L45.2773 11.922C46.2809 12.8393 48.1669 14.3436 51.0846 13.0753C51.0846 13.0753 59.1377 8.60272 59.1696 8.58927C66.0545 4.96544 69.4517 8.42783 70.954 10.7357C71.0063 10.8078 71.0483 10.8861 71.0955 10.9558L71.0981 10.9595C71.1172 10.9876 71.1287 11.0133 71.1453 11.0402L71.3149 11.3068C72.0468 12.3709 73.2009 13.0582 74.5769 13.0264C75.3356 13.0117 75.8508 12.7745 76.6007 12.3745L84.3923 8.04013L84.4089 8.03279C91.3806 4.36494 94.8352 8.05358 96.3106 10.3614C96.4254 10.5608 96.5554 10.7516 96.6893 10.9289C97.42 11.8792 98.4275 12.5017 99.7078 12.4711C100.553 12.4552 101.501 11.9685 101.642 11.8792L110.983 6.70825C110.986 6.7107 110.032 5.32746 108.067 3.17249Z" fill="#FDD213"/>
</g>
<defs>
<clipPath id="clip0_1521_1458">
<rect width="111" height="31" fill="white"/>
</clipPath>
</defs>
</svg>
