<svg width="84" height="84" viewBox="0 0 84 84" fill="none" xmlns="http://www.w3.org/2000/svg">
<rect width="84" height="84" rx="42" fill="#068F23"/>
<path fill-rule="evenodd" clip-rule="evenodd" d="M41.1843 71.741C41.5165 71.9145 41.888 72.0028 42.2595 71.9999C42.631 71.9969 42.9994 71.9057 43.3347 71.7292L54.0383 66.0074C57.0736 64.3894 59.4505 62.5802 61.305 60.4738C65.3369 55.8846 67.5387 50.0275 67.4994 43.9879L67.3726 24.0659C67.3605 21.7713 65.8534 19.7238 63.6245 18.9796L43.7122 12.2987C42.5132 11.8927 41.1994 11.9015 40.0215 12.3193L20.1847 19.2384C17.9679 20.0121 16.488 22.0743 16.5001 24.3719L16.6269 44.2792C16.6662 50.3275 18.9434 56.1582 23.0419 60.7004C24.9144 62.7773 27.3124 64.56 30.381 66.1515L41.1843 71.741ZM38.3508 48.3268C38.7978 48.7563 39.3776 48.9681 39.9575 48.9622C40.5374 48.9593 41.1143 48.7416 41.5552 48.3062L53.2525 36.7743C54.1314 35.9065 54.1223 34.512 53.2344 33.656C52.3434 32.7999 50.9088 32.8058 50.0299 33.6736L39.9243 43.6346L35.7866 39.6573C34.8956 38.8012 33.4641 38.81 32.5822 39.6779C31.7033 40.5457 31.7123 41.9401 32.6033 42.7962L38.3508 48.3268Z" fill="white"/>
</svg>
